<svg width="19" height="15" viewBox="0 0 19 15" fill="none" xmlns="http://www.w3.org/2000/svg">
<rect width="19" height="15" transform="matrix(1 0 0 -1 0 15)" fill="#D9D9D9"/>
<path d="M5.95199 1.50004C6.53213 1.50004 6.93823 1.80004 7.34435 2.04004C7.69243 2.22003 8.04051 2.46003 8.44662 2.64003C10.3031 3.66002 12.1595 4.74003 14.016 5.82002C14.5961 6.12002 15.3503 6.42002 15.7564 6.96001C15.8724 7.14001 16.0465 7.38001 15.9885 7.68001C15.8144 8.34 15.0022 8.58 14.4801 8.88002C13.2038 9.60001 11.8695 10.38 10.5932 11.1C10.129 11.4 9.43286 11.94 8.85273 11.52C8.62067 11.4 8.50464 11.28 8.44662 11.1C8.38861 10.86 8.44662 10.56 8.44662 10.32V8.40002C8.44662 7.86003 8.38861 7.44003 8.73669 7.20001C8.85272 7.14001 9.08478 7.08001 9.25882 7.14001C9.83895 7.38001 9.66491 8.46002 9.66491 9.30001V9.96001C10.6511 9.42001 11.6374 8.88002 12.6236 8.4C12.9717 8.22 13.5518 8.04001 13.6679 7.56001C13.7839 7.02001 12.6816 6.60002 12.3335 6.42002L8.33056 4.08002C8.04049 3.90002 7.28631 3.30002 6.82218 3.48002C6.64814 3.54002 6.53212 3.72002 6.53212 3.84002C6.4741 4.08002 6.4741 4.44001 6.4741 4.74001V9.90001C6.4741 10.38 6.41609 10.98 6.59014 11.28C6.99623 11.88 7.92446 10.8 8.21453 11.76C8.27254 12 8.15652 12.24 8.0405 12.36C7.80844 12.72 6.76417 13.26 6.35807 13.38C6.24205 13.44 5.95198 13.5 5.77794 13.5C4.79171 13.32 5.02376 11.7 5.02376 10.5V4.55999C5.02376 3.66 4.90773 2.45999 5.25581 1.92C5.42985 1.62 5.60391 1.62004 5.95199 1.50004ZM8.96873 5.40005C9.83893 5.40005 9.89694 6.54004 9.08475 6.72005C8.62064 6.78005 8.27256 6.30006 8.38859 5.88006C8.50462 5.58006 8.67866 5.52005 8.96873 5.40005Z" fill="#45B7CF"/>
</svg>
